# xmcd
#
# Track frame offsets:
#	150
#	27769
#	46917
#	65297
#	86408
#	103690
#	122072
#	143900
#	160767
#	186934
#	205586
#	222763
#	236644
#	250847
#	280747
#	294278
#
# Disc length: 4295 seconds
#
# Revision: 1
# Processed by: cddbd v1.4PL0 Copyright (c) Steve Scherf et al.
# Submitted via: audiograbber 1.80.04
#
DISCID=db10c510
DTITLE=Carcass - Wake Up and Smell the Carcass
DYEAR=1900
DGENRE=Metal
TTITLE0=Edge of Darkness
TTITLE1=Emotional Flatline
TTITLE2=Ever Increasing Circles
TTITLE3=Blood Spattered Banner
TTITLE4=I Told You So
TTITLE5=Buried Dreams
TTITLE6=No Love Lost
TTITLE7=Rot 'N' Roll
TTITLE8=Edge of Darkness
TTITLE9=This is Your Life
TTITLE10=Rot 'N' Roll
TTITLE11=Tools of the Trade
TTITLE12=Pyosified
TTITLE13=Hepatic Tissue Fermentation II
TTITLE14=Genital Grinder II
TTITLE15=Hepatic Tissue Fermentation
EXTD=
EXTT0=
EXTT1=
EXTT2=
EXTT3=
EXTT4=
EXTT5=
EXTT6=
EXTT7=
EXTT8=
EXTT9=
EXTT10=
EXTT11=
EXTT12=
EXTT13=
EXTT14=
EXTT15=
PLAYORDER=
